<svg id="Layer_1" data-name="Layer 1" xmlns="http://www.w3.org/2000/svg" viewBox="0 0 779.4 1216.79"><defs><style>.cls-1{fill:#010101;}.cls-2{fill:#f4cd55;}.cls-3{fill:#bbcbcd;}.cls-4{fill:#ebe959;}.cls-5{fill:#465459;}.cls-6{fill:#ece956;}.cls-7{fill:#455359;}.cls-8{fill:#fff;}.cls-9{fill:#f7fbf8;}.cls-10{fill:#c22227;}.cls-11{fill:#4b3421;}.cls-12{fill:#191b21;}</style></defs><title>6</title><path class="cls-1" d="M1094.81,1233.13c-2.1-3.92-5.88-3.76-9.64-3.21-1.58.23-3.14.63-4.73.81s-3.4.91-4.47-.62c-1.32-1.88.28-3.46,1.27-4.9,3.09-4.53,6.72-8.68,9.85-13.18,5.24-7.56,2.78-13.23-6.16-14.61-7.25-1.12-8.4-3.76-4.28-9.87.76-1.14,1.73-2.14,2.48-3.28,3.83-5.87,3.41-9.3-2.43-13.22-3.11-2.09-4-4.63-4-8-.22-40.21-1.65-80.39-2.52-120.58-.55-25.38-1.09-50.69-4.38-75.9-3.33-25.47-8-50.6-17.93-74.46-5.13-12.32-12.33-23-25.22-28.5-3.43-1.46-4.72-4-4.74-7.54,0-2.74-.05-5.49-.05-8.23V157.72a83.93,83.93,0,0,0-.24-10.28c-.23-1.79-.33-4-2.38-4.54s-3.36,1.06-4.63,2.4a22,22,0,0,0-2.09,2.71q-14.85,21.42-29.85,42.72-45,64.35-90.15,128.56c-4.48,6.38-5,6.38-11.41,2C830.39,290,778,277.46,722.8,275.41c-28.14-1-56.14,2.08-83.75,7.62-37.08,7.45-72.2,19.89-103.14,42.42-5.25,3.82-6.38,3.51-10.32-2.22q-58.91-85.58-118.06-171c-2.15-3.12-4.28-8.52-7.95-7.5-4.57,1.26-2.75,7-2.77,10.89-.92,208.5,1.63,417-1.39,625.52-.34,23.32,0,46.65-.07,70,0,3.57.66,7.6-3.91,9.28-11.64,4.27-17.84,13.92-23.27,24.07-10.72,20-15.08,42.06-19.29,64.1-8,41.79-6.92,84.21-8,126.4-.74,29-2,58-1.69,87,.05,4.13-.94,7.32-4.54,10-5.14,3.84-5.34,7-1.85,12.33,1.25,1.91,3,3.49,3.87,5.64,1.48,3.82,1,6.4-3.84,7.37-11.57,2.31-13.39,7.41-6.49,17.08,2.79,3.91,6.14,7.39,8.74,11.44.85,1.32,2.08,2.78,1.18,4.39s-2.8,1.06-4.33.86c-2-.27-4.06-.67-6.12-.77-4.55-.21-8.15,1-9.24,6v1.37c.73,4.92,3.26,8.88,6.51,12.48,4.44,4.92,9,9.74,13.15,14.9a17.53,17.53,0,0,1,4.23,10.61c.51,12.72,3.85,24.81,8.2,36.66,11.18,30.43,37.49,45.55,69.38,40,3.38-.59,6.81-2.42,10.06-1.81,9.23,1.75,15.26-2.52,20.43-9.31a50.31,50.31,0,0,1,4.81-4.88c6.8-6.79,14.9-9.92,24.6-10.25,12.88-.43,23.42,5.07,33.76,11.59,7.28,4.58,11.11,4.23,16.27-1.44,5-5.52,5-5.5,9,1.21,8,13.16,19.1,20.87,35,21.74,38,2.09,73.36-7,107.16-23.56,6.28-3.07,12-6.77,13.8-14.26.46-1.91,1.51-3.84,3.78-2.33,6.57,4.38,12.52,2.76,18.43-1.3,2.06-1.41,3.46-.75,3.86,1.7,1.41,8.48,7.53,12.68,14.54,16,33,15.77,67.48,25.24,104.47,23.69a45,45,0,0,0,29.14-11.88,42.93,42.93,0,0,0,8.89-12.1c1.6-3,3.12-4.11,6.11-1.07,8.74,8.87,10,8.87,21,2.33,7.69-4.58,15.65-8.54,24.65-9.87,17-2.51,29.1,6,38.81,18.45,4.67,6,9.18,9.12,16.69,6,1.88-.78,4.09-.36,6.1.08a88,88,0,0,0,15.68,1.53c19.6.81,35.63-6.2,47.72-22,11.24-14.66,16.33-31.66,18.15-49.59.93-9.2,4-16.71,10.41-23.11a166,166,0,0,0,12.07-14C1096,1240.86,1096.87,1237,1094.81,1233.13Zm-701.7-19.54c.3-8.12-.07-16.3,2.54-24.4l2.78,28.92C395.36,1217.76,393,1217.35,393.11,1213.59Zm625.52-.51c.09,2.15-.63,3.92-2.7,3.9-2.94,0-1.57-2.66-1.49-4,.32-5.4.95-10.79,1.46-16.18-.93-4.8,1.86-9,1.87-13.73.33,4.62,1.45,9.17.49,13.77C1018.37,1202.24,1018.4,1207.66,1018.63,1213.08Z" transform="translate(-316.56 -142.8)"/><path class="cls-2" d="M1004.89,768.58c0,11.44,0,22.59,0,33.74,0,18.52,0,37-.16,55.55,0,2.18,1,4.44-2.75,5.76-26.84,9.35-52.7,21.18-78.94,32q-106.15,43.92-212.2,88.12a11.62,11.62,0,0,1-9.72,0Q557.85,924.31,414.47,865.14c-3.87-1.6-4.9-3.62-4.88-7.55q.24-40.47,0-80.93c0-4.75,1-5.35,5.7-4.47Q558.91,799,702.6,825.43A18.84,18.84,0,0,0,710,825q110.59-21.29,221.2-42.45C955.49,777.87,979.86,773.31,1004.89,768.58Z" transform="translate(-316.56 -142.8)"/><path class="cls-3" d="M706.38,396.2c102.49-1.4,192.71,84.41,190.16,195.11C894.18,693.6,808.82,779.4,701.35,776.85,598.27,774.4,513.54,688,516,581.49,518.33,480.3,602.85,394.87,706.38,396.2Z" transform="translate(-316.56 -142.8)"/><path class="cls-4" d="M988.78,1118.73a196,196,0,0,1-30.91,52.72c-2.27,2.81-5.27,3.42-8.26,4.2a116.23,116.23,0,0,1-14,3c-4.48.58-7.35,2.38-7.58,7.11-.15,2.91-1.7,3.66-4.35,4.12-9,1.56-17.85,3.49-26.79,5.16-1.44.27-3.59,1.15-4.36-.62-2.77-6.41-7.48-4.42-12.15-3.23-9.47,2.41-19,4.75-28.42,7.13-3.73.94-7,2.41-7.05,7,0,2.87-1.83,3.69-4.17,4.37-9.59,2.8-19.14,5.73-28.71,8.59-2.9.87-4.4.89-4.21-3.27.21-4.87-3.39-6.66-8-5.85-17.73,3.17-35.5,5.91-53.49,7-3.9.24-6.48,2.12-8.91,5.34-15.11,20-49.42,20-64.49-.06-2.64-3.5-5.57-5.14-9.63-5.38-17.54-1-34.86-3.71-52.13-6.81-5.14-.92-8.9.59-8.56,6.47.21,3.57-1.49,3.3-3.62,2.67-10-3-20-6.07-30-9.06-1.55-.46-3.15-.58-3.22-2.75-.19-6.55-4.87-7.68-10.07-8.84-9.53-2.12-19-4.69-28.4-7.24-2.53-.68-5.61-1.68-6.93.7-2.87,5.2-6.6,3.83-10.9,2.84-7.31-1.68-14.71-3.09-22.13-4.13-3.29-.46-4.87-1.38-5.08-4.91-.25-4-2.93-6.11-6.87-6.22-14.54-.42-23.37-8.9-30.75-20.46-7.73-12.1-15.09-24.3-20.66-38.83,10.25,2.53,19.61,5,29,7.13,11.31,2.61,13.3.46,10.34-10.71a11.89,11.89,0,0,1,.1-2.67c15.43,4.32,30.58,8.65,45.79,12.75,3.31.89,3.23,3,3.39,5.6.56,9.74,1.42,10.74,10.76,12.78,5.54,1.21,11.14,2.17,16.7,3.35,8.59,1.82,11.72-1.3,9.41-9.53-.36-1.3-.88-2.56-1.49-4.3,4-.44,7.19,1.18,10.52,2.15,10.68,3.1,21.28,6.51,32.07,9.12,4.87,1.17,6.45,3.39,5.73,8-1,6.21,2,9.49,8,10.39,20.28,3.08,40.67,5.2,61.09,7.08,4.58.42,7.55-1,10.31-4.82,13.32-18.24,45.63-18.17,59,.08,2.55,3.48,5.25,5.15,9.66,4.76,20.66-1.82,41.27-4,61.77-7.14,5.51-.84,8.81-3.77,7.83-9.77-.87-5.32,1.33-7.56,6.48-8.89,13.75-3.54,27.34-7.7,41.3-11.7-2.84,16-1.63,17.14,14,13.69,4.21-.93,8.4-2,12.64-2.76,6.36-1.13,9.88-4.58,9.22-11.22-.49-4.86,1.77-6.54,6.19-7.68,14.28-3.69,28.43-7.85,42.63-11.82.25.52.67,1,.6,1.31-2.85,13.38-1.15,15,12.42,11.6C968.92,1123.91,978.29,1121.44,988.78,1118.73Z" transform="translate(-316.56 -142.8)"/><path class="cls-5" d="M1010.14,1090.82c.58,21.81-.81,43.35-2.22,64.91q-1.29,19.79-3.15,39.49c-.86,9-1.86,18.09-2.74,27.14a4.62,4.62,0,0,1-1.88,3.43,29.42,29.42,0,0,0-10.47,17.88c-.85,4.28-4.5,6.2-7.43,8.57-14,11.39-24.56,24.84-27.61,43.3-1.27,7.72,1,14.82,2.71,23.15a55.37,55.37,0,0,0-25.22-5.71c-12.41-.1-23.31,4.11-33.43,10.43-4.57,2.85-6.4,1.74-9.3-2-5.27-6.82-8.67-13.94-9.85-22.72-1.24-9.34-6-17.65-12.31-24.79a16.7,16.7,0,0,0-13.85-6.07c-15.23.62-30.51-.6-46.41,1.81C906.3,1245.18,981.33,1194.55,1010.14,1090.82Z" transform="translate(-316.56 -142.8)"/><path class="cls-5" d="M598.37,1267.52c-7,0-18.67.87-30.1-.23-13.57-1.3-24.37,3.28-30.79,15.24-3.06,5.7-5.81,11.91-5.39,18.16.7,10.44-7,15.85-11.64,23.15-1.55,2.45-3.3,1.06-5.22,0-8.52-4.85-17.24-8.89-27.11-10.82-11.33-2.22-21.59.57-33.12,4.61,3.73-12,3.82-23.13-.43-34.06-5.54-14.27-15.44-25.13-27.34-34.32-2.85-2.2-4.87-4.49-5.32-8.28-.4-3.41-1.73-7.14-4.29-9.14-9.43-7.4-8.31-18-9.21-27.94-1.79-19.95-4.19-39.88-5-59.87-.77-18.45-2.57-36.9-1.67-55.68C429.47,1192.5,504.08,1243.58,598.37,1267.52Z" transform="translate(-316.56 -142.8)"/><path class="cls-6" d="M705.93,1092.21c-3.76-4.79-6.17-9.8-10.62-13.17-6.58-5-12.84-5.69-19.44-1-3,2.12-5.14,2.17-7.81.23a7,7,0,0,0-1.18-.69c-5-2.21-10-5-15.48-1.44-3.88,2.49-4.87,6.42-3.93,15.35-3.37.14-5.91-1.61-8.45-3.27-15.92-10.36-16.65-34.8-1.41-46,5.38-4,11.52-6.35,17.71-8.61,3.25-1.18,5.15-.9,5.54,3.7.66,7.9,5.27,13.61,13,15.79s14.86,1,20.85-4.79c4.34-4.19,4.57-9.69,4.62-15.74,4.43,3,8.67,3,12.86.15,1.39,15.24,7,21.19,19.67,21.19,10.28,0,18-6.22,19.06-16.59.49-4.55,2.25-4.88,5.53-3.71,6,2.13,11.91,4.49,17.16,8.18,8.49,6,13.1,13.75,11.28,24.5-2.54,15-7.95,21.83-20.4,25.33.11-2.3.38-4.52.29-6.73-.32-7.75-6.08-12-13.56-9.9a19.53,19.53,0,0,0-5,2.09c-4.09,2.52-7.5,3.12-12.12,0-6.64-4.46-15.21-1.91-21.06,5.18C710.62,1085.26,708.56,1088.53,705.93,1092.21Z" transform="translate(-316.56 -142.8)"/><path class="cls-7" d="M706.25,1277.47c.68,0,1.37,0,2,0,16.22.47,13.6-3.39,14,14.73.07,3.09-.86,5.24-3.67,6.64a31.76,31.76,0,0,0-4,2.66c-9.94,7-9.94,7-19.42.06-4.76-3.48-8-17.19-5.34-22.33.93-1.8,2.51-1.72,4.07-1.73C698.06,1277.45,702.15,1277.48,706.25,1277.47Z" transform="translate(-316.56 -142.8)"/><path class="cls-1" d="M719.66,926.71c-29.45-1.09-56.37-10.78-82.16-24.31a146.1,146.1,0,0,1-43.41-34.85c-2.3-2.69-4.73-5.39-3.09-9.06,1.55-3.48,5.11-3.25,8.34-3.27,31.95-.24,63.65-3.66,95.11-8.72a853.89,853.89,0,0,0,147.92-37.45c.64-.22,1.28-.48,1.93-.67,3-.87,6.23-3.15,8.81,0s.27,6.45-1.27,9.44c-13.62,26.54-31.27,50.09-51.83,71.67-16.08,16.86-34.3,29.61-57.31,34.83A115.66,115.66,0,0,1,719.66,926.71Z" transform="translate(-316.56 -142.8)"/><path class="cls-8" d="M707.87,426.88c86.2-1.05,161,71.46,158.6,163.42C864.33,672.71,796.61,745.38,707,744.85c-88.06-.52-159-70.16-158.35-161.27C549.26,496.63,621.12,425.85,707.87,426.88Z" transform="translate(-316.56 -142.8)"/><path class="cls-9" d="M765.78,839.2c26.9-6.85,52.52-14.27,78.94-23.28a256.08,256.08,0,0,1-31,46.83c-3.08,3.74-7.76,3.49-12,2.6C786.19,862.14,776.17,851.35,765.78,839.2Z" transform="translate(-316.56 -142.8)"/><path class="cls-9" d="M677.76,856.62c27.74-4.19,53.76-9.25,80.73-15.62-8.62,16.45-15.68,33.36-35.26,37.07C704.17,881.67,691.51,869.29,677.76,856.62Z" transform="translate(-316.56 -142.8)"/><path class="cls-10" d="M780.11,898.24c-25.9,19.39-53.34,25.47-83.62,18.55-1.46-.34-3.8.21-3.75-1.88,0-1.2,1.69-2.61,2.92-3.52,16.65-12.33,35.18-18.83,56.08-18.24A91.7,91.7,0,0,1,780.11,898.24Z" transform="translate(-316.56 -142.8)"/><path class="cls-9" d="M670.36,857.42c-4.4,11.91-9.24,22.37-19,29.61-9.12,6.75-15.67,6.8-24.75.31A149.66,149.66,0,0,1,600,863C624,861.94,647,860.92,670.36,857.42Z" transform="translate(-316.56 -142.8)"/><path class="cls-11" d="M706.21,517.44c38.14,0,68.25,30.41,68.24,68.91s-30.41,68.33-69.53,68.3c-37.67,0-67.59-30.85-67.56-69.59C637.39,547.58,668.08,517.43,706.21,517.44Z" transform="translate(-316.56 -142.8)"/><path class="cls-12" d="M706.43,546.25c19.72-1.44,40.14,18.54,39.58,40.84-.49,19.26-18.78,39.53-41,39.09-19.16-.38-40-18.61-39.2-41.53C666.47,565.55,684.63,544.51,706.43,546.25Z" transform="translate(-316.56 -142.8)"/></svg>